<svg id="visual" viewBox="0 0 540 960" width="540" height="960" xmlns="http://www.w3.org/2000/svg" xmlns:xlink="http://www.w3.org/1999/xlink" version="1.1"><path d="M0 260L15 292C30 324 60 388 90 383.2C120 378.3 150 304.7 180 266.3C210 228 240 225 270 201C300 177 330 132 360 138.3C390 144.7 420 202.3 450 210.3C480 218.3 510 176.7 525 155.8L540 135L540 0L525 0C510 0 480 0 450 0C420 0 390 0 360 0C330 0 300 0 270 0C240 0 210 0 180 0C150 0 120 0 90 0C60 0 30 0 15 0L0 0Z" fill="#ff90bc"></path><path d="M0 423L15 442.3C30 461.7 60 500.3 90 497.2C120 494 150 449 180 423.3C210 397.7 240 391.3 270 359.3C300 327.3 330 269.7 360 268C390 266.3 420 320.7 450 328.7C480 336.7 510 298.3 525 279.2L540 260L540 133L525 153.8C510 174.7 480 216.3 450 208.3C420 200.3 390 142.7 360 136.3C330 130 300 175 270 199C240 223 210 226 180 264.3C150 302.7 120 376.3 90 381.2C60 386 30 322 15 290L0 258Z" fill="#ff7aae"></path><path d="M0 567L15 583C30 599 60 631 90 619.8C120 608.7 150 554.3 180 520.8C210 487.3 240 474.7 270 452.3C300 430 330 398 360 406C390 414 420 462 450 455.5C480 449 510 388 525 357.5L540 327L540 258L525 277.2C510 296.3 480 334.7 450 326.7C420 318.7 390 264.3 360 266C330 267.7 300 325.3 270 357.3C240 389.3 210 395.7 180 421.3C150 447 120 492 90 495.2C60 498.3 30 459.7 15 440.3L0 421Z" fill="#ff61a0"></path><path d="M0 673L15 690.7C30 708.3 60 743.7 90 756.5C120 769.3 150 759.7 180 750C210 740.3 240 730.7 270 713C300 695.3 330 669.7 360 676C390 682.3 420 720.7 450 722.3C480 724 510 689 525 671.5L540 654L540 325L525 355.5C510 386 480 447 450 453.5C420 460 390 412 360 404C330 396 300 428 270 450.3C240 472.7 210 485.3 180 518.8C150 552.3 120 606.7 90 617.8C60 629 30 597 15 581L0 565Z" fill="#f34d8f"></path><path d="M0 865L15 857C30 849 60 833 90 825C120 817 150 817 180 813.8C210 810.7 240 804.3 270 814C300 823.7 330 849.3 360 866.8C390 884.3 420 893.7 450 896.8C480 900 510 897 525 895.5L540 894L540 652L525 669.5C510 687 480 722 450 720.3C420 718.7 390 680.3 360 674C330 667.7 300 693.3 270 711C240 728.7 210 738.3 180 748C150 757.7 120 767.3 90 754.5C60 741.7 30 706.3 15 688.7L0 671Z" fill="#db417d"></path><path d="M0 961L15 961C30 961 60 961 90 961C120 961 150 961 180 961C210 961 240 961 270 961C300 961 330 961 360 961C390 961 420 961 450 961C480 961 510 961 525 961L540 961L540 892L525 893.5C510 895 480 898 450 894.8C420 891.7 390 882.3 360 864.8C330 847.3 300 821.7 270 812C240 802.3 210 808.7 180 811.8C150 815 120 815 90 823C60 831 30 847 15 855L0 863Z" fill="#c3366c"></path></svg>