<svg id="visual" viewBox="0 0 960 540" width="100%" height="540" xmlns="http://www.w3.org/2000/svg" xmlns:xlink="http://www.w3.org/1999/xlink" version="1.1"><path d="M0 248L26.7 224.5C53.3 201 106.7 154 160 135.2C213.3 116.3 266.7 125.7 320 158.8C373.3 192 426.7 249 480 259.2C533.3 269.3 586.7 232.7 640 234C693.3 235.3 746.7 274.7 800 292.3C853.3 310 906.7 306 933.3 304L960 302L960 541L933.3 541C906.7 541 853.3 541 800 541C746.7 541 693.3 541 640 541C586.7 541 533.3 541 480 541C426.7 541 373.3 541 320 541C266.7 541 213.3 541 160 541C106.7 541 53.3 541 26.7 541L0 541Z" fill="#ffffff"></path><path d="M0 288L26.7 296.2C53.3 304.3 106.7 320.7 160 311.2C213.3 301.7 266.7 266.3 320 247C373.3 227.7 426.7 224.3 480 230.5C533.3 236.7 586.7 252.3 640 279.3C693.3 306.3 746.7 344.7 800 358.3C853.3 372 906.7 361 933.3 355.5L960 350L960 541L933.3 541C906.7 541 853.3 541 800 541C746.7 541 693.3 541 640 541C586.7 541 533.3 541 480 541C426.7 541 373.3 541 320 541C266.7 541 213.3 541 160 541C106.7 541 53.3 541 26.7 541L0 541Z" fill="#ea9bb0"></path><path d="M0 335L26.7 341.7C53.3 348.3 106.7 361.7 160 376.3C213.3 391 266.7 407 320 430.8C373.3 454.7 426.7 486.3 480 488.2C533.3 490 586.7 462 640 452.7C693.3 443.3 746.7 452.7 800 439.7C853.3 426.7 906.7 391.3 933.3 373.7L960 356L960 541L933.3 541C906.7 541 853.3 541 800 541C746.7 541 693.3 541 640 541C586.7 541 533.3 541 480 541C426.7 541 373.3 541 320 541C266.7 541 213.3 541 160 541C106.7 541 53.3 541 26.7 541L0 541Z" fill="#c62368"></path></svg>